<svg width="256" height="256" viewBox="0 0 256 256" fill="none" xmlns="http://www.w3.org/2000/svg">
<path d="M113.893 26.2492C122.305 20.1378 133.695 20.1378 142.107 26.2492L220.411 83.1409C228.823 89.2523 232.343 100.085 229.13 109.974L199.22 202.026C196.007 211.915 186.792 218.61 176.395 218.61H79.6051C69.2077 218.61 59.9927 211.915 56.7797 202.026L26.87 109.974C23.657 100.085 27.1768 89.2523 35.5885 83.1409L113.893 26.2492Z" fill="url(#paint0_linear_13478_20551)"/>
<g filter="url(#filter0_dd_13478_20551)">
<path d="M121.649 146.5V198.651C121.649 200.234 123.782 200.738 124.49 199.322L167.245 113.813C167.744 112.816 167.018 111.642 165.903 111.642H137.719C136.89 111.642 136.219 110.971 136.219 110.142V57.8432C136.219 56.269 134.103 55.7577 133.384 57.1582L89.4127 142.815C88.9003 143.813 89.6251 145 90.7471 145H120.149C120.977 145 121.649 145.671 121.649 146.5Z" fill="white"/>
</g>
<defs>
<filter id="filter0_dd_13478_20551" x="57.2451" y="28.3418" width="142.16" height="207.812" filterUnits="userSpaceOnUse" color-interpolation-filters="sRGB">
<feFlood flood-opacity="0" result="BackgroundImageFix"/>
<feColorMatrix in="SourceAlpha" type="matrix" values="0 0 0 0 0 0 0 0 0 0 0 0 0 0 0 0 0 0 127 0" result="hardAlpha"/>
<feOffset dy="4"/>
<feGaussianBlur stdDeviation="4"/>
<feComposite in2="hardAlpha" operator="out"/>
<feColorMatrix type="matrix" values="0 0 0 0 0 0 0 0 0 0 0 0 0 0 0 0 0 0 0.15 0"/>
<feBlend mode="normal" in2="BackgroundImageFix" result="effect1_dropShadow_13478_20551"/>
<feColorMatrix in="SourceAlpha" type="matrix" values="0 0 0 0 0 0 0 0 0 0 0 0 0 0 0 0 0 0 127 0" result="hardAlpha"/>
<feOffset dy="4"/>
<feGaussianBlur stdDeviation="16"/>
<feComposite in2="hardAlpha" operator="out"/>
<feColorMatrix type="matrix" values="0 0 0 0 0 0 0 0 0 0 0 0 0 0 0 0 0 0 0.15 0"/>
<feBlend mode="normal" in2="effect1_dropShadow_13478_20551" result="effect2_dropShadow_13478_20551"/>
<feBlend mode="normal" in="SourceGraphic" in2="effect2_dropShadow_13478_20551" result="shape"/>
</filter>
<linearGradient id="paint0_linear_13478_20551" x1="16" y1="16" x2="240" y2="240" gradientUnits="userSpaceOnUse">
<stop stop-color="#5783FF"/>
<stop offset="1" stop-color="#0043FF"/>
</linearGradient>
</defs>
</svg>